REM DIRINDEX 1\2,1\3,1\4,1\5
REM DIRNAME "folder01","folder02","folder03","folder04","folder05"
TITLE ""
FILE "P1Q_t_0388-0397.mp3" MP3
  TRACK 01 AUDIO
    TITLE "3:cjc173_2088"
    INDEX 01 00:00:00
  TRACK 02 AUDIO
    TITLE "0:"
    INDEX 01 00:01:27
  TRACK 03 AUDIO
    TITLE "4:cjc173_2089"
    INDEX 01 00:01:49
  TRACK 04 AUDIO
    TITLE "0:"
    INDEX 01 00:04:14
  TRACK 05 AUDIO
    TITLE "5:cjc173_2090"
    INDEX 01 00:04:32
  TRACK 06 AUDIO
    TITLE "0:"
    INDEX 01 00:08:74
  TRACK 07 AUDIO
    TITLE "3:cjc173_2091"
    INDEX 01 00:09:45
  TRACK 08 AUDIO
    TITLE "0:"
    INDEX 01 00:10:56
  TRACK 09 AUDIO
    TITLE "4:cjc173_2092"
    INDEX 01 00:11:02
  TRACK 10 AUDIO
    TITLE "0:"
    INDEX 01 00:14:71
  TRACK 11 AUDIO
    TITLE "5:cjc173_2093"
    INDEX 01 00:15:14
  TRACK 12 AUDIO
    TITLE "0:"
    INDEX 01 00:20:37
  TRACK 13 AUDIO
    TITLE "3:cjc173_2094"
    INDEX 01 00:21:07
  TRACK 14 AUDIO
    TITLE "0:"
    INDEX 01 00:22:31
  TRACK 15 AUDIO
    TITLE "4:cjc173_2095"
    INDEX 01 00:22:53
  TRACK 16 AUDIO
    TITLE "0:"
    INDEX 01 00:26:66
  TRACK 17 AUDIO
    TITLE "5:cjc173_2096"
    INDEX 01 00:27:09
  TRACK 18 AUDIO
    TITLE "0:"
    INDEX 01 00:33:04
  TRACK 19 AUDIO
    TITLE "3:cjc173_2097"
    INDEX 01 00:33:51
  TRACK 20 AUDIO
    TITLE "0:"
    INDEX 01 00:35:03
  TRACK 21 AUDIO
    TITLE "4:cjc173_2098"
    INDEX 01 00:35:28
  TRACK 22 AUDIO
    TITLE "0:"
    INDEX 01 00:37:43
  TRACK 23 AUDIO
    TITLE "5:cjc173_2099"
    INDEX 01 00:37:62
  TRACK 24 AUDIO
    TITLE "0:"
    INDEX 01 00:45:19
  TRACK 25 AUDIO
    TITLE "3:cjc173_2100"
    INDEX 01 00:45:64
  TRACK 26 AUDIO
    TITLE "0:"
    INDEX 01 00:46:65
  TRACK 27 AUDIO
    TITLE "4:cjc173_2101"
    INDEX 01 00:47:12
  TRACK 28 AUDIO
    TITLE "0:"
    INDEX 01 00:49:40
  TRACK 29 AUDIO
    TITLE "5:cjc173_2102"
    INDEX 01 00:49:60
  TRACK 30 AUDIO
    TITLE "0:"
    INDEX 01 00:54:22
  TRACK 31 AUDIO
    TITLE "3:cjc173_2103"
    INDEX 01 00:54:65
  TRACK 32 AUDIO
    TITLE "0:"
    INDEX 01 00:55:72
  TRACK 33 AUDIO
    TITLE "4:cjc173_2104"
    INDEX 01 00:56:17
  TRACK 34 AUDIO
    TITLE "0:"
    INDEX 01 01:00:22
  TRACK 35 AUDIO
    TITLE "5:cjc173_2105"
    INDEX 01 01:00:42
  TRACK 36 AUDIO
    TITLE "0:"
    INDEX 01 01:05:22
  TRACK 37 AUDIO
    TITLE "3:cjc173_2106"
    INDEX 01 01:05:67
  TRACK 38 AUDIO
    TITLE "0:"
    INDEX 01 01:06:70
  TRACK 39 AUDIO
    TITLE "4:cjc173_2107"
    INDEX 01 01:07:16
  TRACK 40 AUDIO
    TITLE "0:"
    INDEX 01 01:09:47
  TRACK 41 AUDIO
    TITLE "5:cjc173_2108"
    INDEX 01 01:09:66
  TRACK 42 AUDIO
    TITLE "0:"
    INDEX 01 01:16:37
  TRACK 43 AUDIO
    TITLE "3:cjc173_2109"
    INDEX 01 01:17:07
  TRACK 44 AUDIO
    TITLE "0:"
    INDEX 01 01:18:20
  TRACK 45 AUDIO
    TITLE "4:cjc173_2110"
    INDEX 01 01:18:42
  TRACK 46 AUDIO
    TITLE "0:"
    INDEX 01 01:20:17
  TRACK 47 AUDIO
    TITLE "5:cjc173_2111"
    INDEX 01 01:20:37
  TRACK 48 AUDIO
    TITLE "0:"
    INDEX 01 01:26:71
  TRACK 49 AUDIO
    TITLE "3:cjc173_2112"
    INDEX 01 01:27:41
  TRACK 50 AUDIO
    TITLE "0:"
    INDEX 01 01:28:48
  TRACK 51 AUDIO
    TITLE "4:cjc173_2113"
    INDEX 01 01:28:72
  TRACK 52 AUDIO
    TITLE "0:"
    INDEX 01 01:32:09
  TRACK 53 AUDIO
    TITLE "5:cjc173_2114"
    INDEX 01 01:32:30
  TRACK 54 AUDIO
    TITLE "0:"
    INDEX 01 01:37:16
  TRACK 55 AUDIO
    TITLE "3:cjc173_2115"
    INDEX 01 01:37:63
  TRACK 56 AUDIO
    TITLE "0:"
    INDEX 01 01:39:22
  TRACK 57 AUDIO
    TITLE "4:cjc173_2116"
    INDEX 01 01:39:46
  TRACK 58 AUDIO
    TITLE "0:"
    INDEX 01 01:40:59
  TRACK 59 AUDIO
    TITLE "5:cjc173_2117"
    INDEX 01 01:41:04
  TRACK 60 AUDIO
    TITLE "0:"
    INDEX 01 01:47:34
